<svg width="42" height="44" viewBox="0 0 42 44" fill="none" xmlns="http://www.w3.org/2000/svg">
<path fill-rule="evenodd" clip-rule="evenodd" d="M5.78428 65.7852C6.39655 65.8232 7.00877 65.853 7.62096 65.876C15.6268 66.1743 23.6262 65.2614 31.627 65.0616C34.4132 64.9883 37.1851 65.0248 39.9643 65.2485C40.2366 65.2706 40.5479 64.9774 40.5145 64.6983C40.0011 60.2644 39.3588 55.8427 39.0259 51.3907C39.0257 51.1551 39.0559 50.9201 39.1368 50.6983C39.1521 50.6809 39.2312 50.4858 39.3014 50.4736C39.2784 50.4908 39.3825 50.4608 39.3164 50.4659C39.7181 50.4001 40.1122 49.9662 39.8207 49.5511C36.8169 44.9453 32.7161 40.7415 31.397 35.271C31.0852 33.7921 29.9595 33.7006 28.7602 33.0905C28.3859 32.8678 27.4708 32.2512 27.3219 31.8224C26.9663 30.277 27.5926 28.7632 25.7626 28.1379C24.5544 27.8028 22.4189 27.5191 21.1966 27.8725C19.7053 28.3691 19.8169 30.0501 18.952 31.2066C18.5048 31.8755 17.7423 32.7913 17.038 32.8939C16.6967 32.9436 16.4453 32.2529 16.1046 32.3003C10.7929 33.5909 3.55613 42.3947 1.27321 47.2682C0.758727 48.802 2.41793 48.3394 2.31598 49.881C2.19034 52.8057 1.9155 56.5496 2.0785 59.4779C2.23116 61.1773 2.11817 62.9581 2.64626 64.5937C2.50411 64.7663 2.70834 64.9406 2.87497 65.0156C3.08493 65.373 5.15079 65.7359 5.78428 65.7852Z" fill="white"/>
<path fill-rule="evenodd" clip-rule="evenodd" d="M19.6128 29.3645C19.7508 28.7431 20.7395 29.0096 20.5703 29.6286C20.3079 30.5859 19.7637 31.4905 18.9955 32.1255C18.4022 32.6158 17.5936 33.053 16.7916 33.1338C16.8668 33.2072 16.939 33.2854 17.0148 33.3602C17.1854 33.5299 17.367 33.6875 17.5541 33.839C17.9388 34.1501 18.3387 34.43 18.7757 34.6643C20.5202 35.6007 22.4908 35.8167 24.4394 35.5985C25.3641 35.4952 26.3027 35.3197 27.172 34.9815C27.5751 34.8251 27.9668 34.6193 28.3128 34.3593L28.4033 34.2915C28.5851 34.154 28.8277 33.9603 28.9412 33.7485C28.5955 33.8262 28.1583 33.4577 27.9184 33.2435C27.656 33.0082 27.435 32.7046 27.2718 32.3935C26.9522 31.7832 26.783 30.9957 27.051 30.3414C27.0689 30.2978 27.1261 30.305 27.1311 30.3522C27.2105 31.1151 27.4161 31.8302 27.9634 32.3952C28.2063 32.6453 28.4972 32.8552 28.8149 33.0009L28.8596 33.0215C28.995 33.084 29.1373 33.1576 29.1945 33.2914C29.2165 33.289 29.2385 33.291 29.2593 33.2968C29.2782 33.3018 29.2956 33.3074 29.3126 33.3135C29.2748 33.2394 29.2547 33.152 29.2584 33.0484C29.2717 32.648 29.8215 32.6356 29.8977 32.9922C29.8839 32.9453 29.8655 32.9908 29.9001 33.005C29.8997 33.0009 29.8987 32.9963 29.8977 32.9922L29.8987 32.9961L29.9009 33.005H29.9001C29.9016 33.0116 29.9028 33.0181 29.9035 33.0249L29.9043 33.0339L29.9038 33.0263C29.9033 33.021 29.9026 33.0159 29.9018 33.0116L29.9006 33.005C29.906 33.0075 29.913 33.0092 29.9212 33.0092L29.9246 33.0104C29.9374 33.0159 29.9827 33.037 29.996 33.0423C30.0875 33.0762 30.1897 33.0869 30.2834 33.1159C30.4865 33.1784 30.6654 33.2818 30.7891 33.4577C30.8782 33.5841 30.9278 33.7291 30.9481 33.8795C31.8468 34.3118 32.6975 34.8735 33.4099 35.569C35 37.1203 36.1087 39.0618 37.0187 41.0717C37.4819 42.095 37.8944 43.1398 38.2982 44.1876L38.3619 44.3529C38.7945 45.4791 39.177 46.6177 39.2711 47.8281C39.2799 47.9366 39.244 48.0385 39.182 48.123C39.2041 48.214 39.2155 48.305 39.2123 48.3941C39.2118 48.4079 39.2109 48.4217 39.2096 48.4355C39.3549 48.4328 39.4972 48.4938 39.6321 48.6648C39.6868 48.6473 39.7464 48.6452 39.8045 48.6643C40.1601 48.7778 40.2172 49.1683 40.2843 49.4951C40.3533 49.8328 40.3835 50.1788 40.384 50.523C40.384 50.6463 40.3133 50.8019 40.1937 50.8547C39.9688 50.9537 39.7263 51.0188 39.4936 51.1089C39.3186 51.1764 39.1433 51.2403 38.9663 51.3004C39.0644 51.4715 39.0961 51.71 39.1494 51.8908C39.2326 52.1726 39.2997 52.4556 39.3561 52.7442C39.7376 54.7063 40.002 56.6895 40.3591 58.6557C40.5375 59.6408 40.7452 60.6191 40.9568 61.5974C41.0611 62.0781 41.1723 62.5582 41.2914 63.0361C41.3548 63.2908 41.4206 63.5457 41.4887 63.7989C41.5085 63.873 41.5286 63.9468 41.5487 64.0204L41.5843 64.1494C41.6622 64.1923 41.7286 64.2574 41.7746 64.3463C41.9431 64.6719 41.8462 65.0386 41.5235 65.2219C41.1727 65.4214 40.7539 65.233 40.5605 64.9091C40.4244 64.6806 40.3799 64.3777 40.3128 64.1233C40.2373 63.8379 40.1652 63.5508 40.0954 63.2636C39.6231 61.3136 39.3065 59.3295 39.068 57.3378L39.0511 57.1955C38.93 56.1702 38.8129 55.1423 38.7371 54.1122C38.6998 53.6063 38.67 53.1003 38.6516 52.5931C38.6424 52.3322 38.6574 52.0697 38.6722 51.8092C38.6787 51.6952 38.6887 51.5807 38.6921 51.4664L38.6933 51.4502C38.6942 51.4388 38.6954 51.4236 38.6967 51.4076L38.6979 51.3883C38.3449 51.4989 37.9869 51.5909 37.6252 51.6686C36.8561 51.8349 36.0688 51.9276 35.2837 51.8804C35.3934 53.1812 35.536 54.4785 35.7354 55.7674C35.9277 57.0088 36.1496 58.2473 36.4002 59.4786C36.5256 60.0971 36.6612 60.7142 36.8038 61.3291C36.8805 61.6576 36.9679 61.984 37.0371 62.3142C37.0781 62.5105 37.0909 62.6749 37.0083 62.8586C37.0991 63.1056 37.1797 63.3537 37.2589 63.5876L37.2826 63.6573C37.4228 64.0667 37.6886 64.485 37.4109 64.8873C37.2674 65.0948 37.033 65.2137 36.7972 65.2209C36.7931 65.2234 36.7885 65.2265 36.7839 65.2289C36.6571 65.2969 36.5108 65.3103 36.3716 65.2812C36.1605 65.3226 35.9487 65.3626 35.7364 65.3989C35.2123 65.4894 34.6855 65.5642 34.1575 65.6272C33.1526 65.7467 32.1409 65.8124 31.1297 65.8487C27.4279 65.9821 23.7218 65.7477 20.0186 65.8153C18.1318 65.8496 16.2449 65.9346 14.3612 66.0472C13.4212 66.1033 12.4806 66.1639 11.5401 66.2103L11.2489 66.2246C10.4078 66.2648 9.56604 66.2958 8.72554 66.2343C8.70915 66.2333 8.69636 66.2268 8.68767 66.2176C8.39768 66.1847 8.1062 65.9177 8.1353 65.6092C8.26061 64.2952 8.38591 62.9814 8.51175 61.6668C8.73524 59.3251 8.9608 56.9832 9.18889 54.6419L9.22187 54.3037C9.29851 53.515 9.37169 52.7241 9.40883 51.932C9.22165 51.9189 9.035 51.902 8.84828 51.8814C6.82519 51.6599 4.88575 51.0476 3.02359 50.2437L2.94815 50.211C2.78038 50.1376 2.59676 50.0645 2.40856 49.9863C2.41168 50.3439 2.39987 50.7022 2.39832 51.0561C2.39578 51.6441 2.40038 52.2319 2.4019 52.8192C2.40549 54.0299 2.45151 55.2411 2.51186 56.4496C2.61775 58.5841 2.74201 60.7157 2.93024 62.8451C2.97781 63.3808 3.0423 63.9156 3.08776 64.4513C3.11493 64.767 3.04992 65.0299 2.76099 65.1958C2.61877 65.2776 2.50881 65.2434 2.36765 65.1774C2.02291 65.0156 2.01321 64.6334 1.98048 64.301C1.95547 64.0502 1.9324 63.7994 1.90988 63.5483C1.86185 63.0126 1.82038 62.4769 1.78664 61.9402C1.6532 59.8076 1.61427 57.677 1.70633 55.5418C1.74906 54.5431 1.81077 53.5424 1.89267 52.5454L1.91194 52.3155C1.97943 51.5187 2.02291 50.6828 2.16255 49.881C1.59943 49.6312 1.04144 49.3136 0.782648 48.7853C0.447186 48.0997 0.815886 47.5134 1.34115 47.1098C1.33604 47.0418 1.34115 46.9743 1.35548 46.9128C1.50635 46.2594 1.75901 45.6137 2.00297 44.9906C2.24898 44.3643 2.52057 43.7477 2.81926 43.1444C4.01811 40.7279 5.65579 38.5196 7.60801 36.6591C8.57772 35.7353 9.63898 34.8812 10.7719 34.1649C11.3334 33.8105 11.9093 33.4829 12.5057 33.1912L12.5938 33.1484C13.009 32.9467 13.4746 32.7325 13.9363 32.6204C13.9843 32.5845 14.0329 32.5506 14.082 32.5184C14.2635 32.3976 14.5101 32.485 14.6175 32.6576C14.6697 32.6172 14.73 32.5814 14.799 32.5492L14.8673 32.518C15.2815 32.3313 15.7789 32.1568 16.2285 32.2795C16.5078 32.3558 16.7276 32.5615 16.8264 32.8235C17.053 32.7036 17.2755 32.5804 17.4929 32.4294C17.8422 32.188 18.1589 31.888 18.4431 31.5733C19.0134 30.9405 19.4277 30.1992 19.6128 29.3645ZM39.4004 49.3191C39.3614 49.3305 39.3205 49.3344 39.2782 49.3293C39.3549 49.3382 39.2012 49.3838 39.159 49.4056L39.1559 49.4072C39.0792 49.4511 39.0019 49.4937 38.9237 49.5346C38.7412 49.6307 38.5546 49.7171 38.3648 49.7985C37.9907 49.9578 37.6046 50.08 37.2083 50.1696C36.8207 50.257 36.414 50.3081 36.0165 50.3163C35.7507 50.3214 35.435 50.3093 35.16 50.2308C35.1917 50.7133 35.2268 51.1953 35.2663 51.6768L35.8098 51.5521C36.3532 51.4275 36.896 51.2997 37.4322 51.1442C37.8348 51.0275 38.2316 50.891 38.624 50.7436C38.8296 50.6663 39.0336 50.5845 39.2353 50.4964C39.3355 50.4526 39.4295 50.4005 39.5224 50.3478L39.6018 50.3025C39.5834 50.087 39.5498 49.8759 39.5006 49.6629C39.4752 49.5503 39.4316 49.4348 39.4004 49.3191ZM2.18811 47.0469C2.11907 47.2711 2.01318 47.4802 1.7718 47.5308C1.68636 47.5487 1.61483 47.5391 1.55544 47.51L1.54121 47.5386C1.34272 47.9462 1.28442 48.3764 1.7411 48.6902C1.94726 48.832 2.17175 48.9548 2.40394 49.0647C2.81919 49.2625 3.26139 49.4213 3.67831 49.583L3.76135 49.6154C4.50705 49.9081 5.2645 50.1747 6.03373 50.3976C6.81425 50.6233 7.60849 50.8043 8.41256 50.9196C8.75161 50.9677 9.09324 51.0014 9.43546 51.0234C9.44103 50.563 9.43849 50.102 9.43694 49.6413C9.31521 49.6261 9.19451 49.6096 9.07797 49.5958C8.72295 49.5544 8.36904 49.5038 8.01714 49.4409C7.28218 49.3094 6.5549 49.1279 5.84551 48.8955C4.53107 48.4641 3.30818 47.8475 2.18811 47.0469ZM16.5994 32.9416C16.3007 32.6255 15.7294 32.7395 15.3689 32.893C15.2599 32.9394 15.1499 32.9866 15.0456 33.0433L15.0254 33.0547C14.9039 33.1246 14.9045 33.1663 14.9638 33.3057C15.041 33.4895 15.1484 33.6672 15.2507 33.8373C15.6885 34.5687 16.2649 35.2051 16.9232 35.7428C19.2543 37.6461 22.6034 38.3174 25.5186 37.68C26.9179 37.3743 28.2675 36.7574 29.2973 35.7455L29.3913 35.6523C29.8065 35.2364 30.3766 34.6348 30.3366 34.0187C30.3175 33.7224 30.0757 33.7054 29.8287 33.6483C29.7275 33.6245 29.6307 33.5914 29.5469 33.5444C29.6145 33.8354 29.255 34.2683 29.0691 34.4498C28.68 34.8311 28.2113 35.1289 27.7158 35.3514C26.7726 35.7757 25.7469 35.9762 24.7253 36.103C23.5664 36.2473 22.3823 36.2345 21.2322 36.0212C20.2311 35.8355 19.2446 35.484 18.3833 34.9364C17.9884 34.6859 17.5994 34.3997 17.2699 34.0666L17.2 33.9959C16.9622 33.755 16.6855 33.4636 16.5431 33.1474C16.4889 33.1479 16.4352 33.1462 16.3815 33.1426C16.3437 33.1406 16.3233 33.0869 16.3611 33.0668C16.4035 33.0443 16.446 33.022 16.4884 33C16.4813 32.9762 16.4751 32.9532 16.47 32.9298C16.4659 32.9099 16.4869 32.8915 16.5053 32.9026C16.5309 32.9179 16.5554 32.9344 16.5795 32.9518C16.5861 32.9486 16.5927 32.9453 16.5994 32.9416Z" fill="black"/>
<path fill-rule="evenodd" clip-rule="evenodd" d="M31.7762 18.3558C31.6547 16.7828 31.8428 15.134 31.2366 13.6388C30.1796 11.1581 27.2152 10.3309 24.9173 9.38647C23.9967 9.11434 20.8989 9.07631 19.8209 8.71613C17.3814 7.90097 16.7984 6.92974 14.8599 8.48181C14.5327 8.74697 14.3279 9.03513 14.1786 9.42884L14.1847 9.43053C14.1421 9.59467 14.1878 9.75844 14.2839 9.88355C13.4434 10.743 13.0916 12.0316 13.5229 13.1757C14.9303 16.153 14.8641 17.7628 14.4106 20.9635C13.8185 23.9516 15.1716 25.043 17.4126 26.6688C17.3213 26.8458 17.3025 27.0811 17.4213 27.2373C20.0129 30.8802 24.8989 32.6194 29.0854 30.7705C30.7846 30.0138 31.5433 28.2034 31.9761 26.5698C32.4804 24.7408 32.6354 22.8133 32.2248 20.9502C32.0592 20.0884 31.8435 19.2329 31.7762 18.3558Z" fill="white"/>
<path fill-rule="evenodd" clip-rule="evenodd" d="M16.8283 0.927866C17.1431 0.880634 17.3805 1.07585 17.4936 1.35104L17.4994 1.36585C17.5357 1.45949 17.5762 1.55057 17.6197 1.64009C18.4068 1.25381 19.5298 1.35307 20.028 2.13538C20.3834 2.69412 20.1667 3.35722 20.0326 3.94971L19.9447 4.3401C20.1147 4.44836 20.243 4.6422 20.2369 4.84294L20.2362 4.85841L20.2004 5.40279C20.3139 5.28768 20.4178 5.16233 20.5103 5.02879C20.5744 4.91162 20.6434 4.79648 20.7175 4.68495C21.1537 4.02851 22.1332 4.59899 21.7732 5.30201C21.704 5.43761 21.6263 5.56603 21.543 5.68984C21.4488 5.87249 21.3716 6.06028 21.3123 6.25318C21.4827 6.32735 21.6135 6.49212 21.6275 6.74079C21.6597 7.32151 21.3547 7.80605 20.87 8.11048C20.7272 8.20003 20.58 8.21741 20.4464 8.18414C20.4229 8.21588 20.3994 8.2476 20.3769 8.27984C20.5703 8.43691 20.7446 8.61598 20.8945 8.81452C21.3455 8.74698 21.7991 8.71526 22.2528 8.71422C22.8072 8.44255 23.4712 8.44817 24.067 8.54999C24.4505 8.61547 24.8189 8.74288 25.1964 8.83447C25.5941 8.93065 25.9982 8.93423 26.4008 8.99974C26.9082 9.0821 27.3531 9.31644 27.633 9.69047C27.9402 9.69967 28.2634 9.82555 28.5316 9.99644C29.1555 10.3945 29.7759 10.7982 30.3984 11.1988C30.6373 11.3526 30.7266 11.5982 30.6826 11.872L30.6797 11.8895L30.6586 12.0031L30.708 12.073C30.8983 12.3422 31.1057 12.624 31.229 12.9211C31.457 13.25 31.663 13.5949 31.8458 13.9505C32.0918 14.4284 32.2949 14.9349 32.4324 15.4548C32.4665 15.5863 32.5009 15.7188 32.5234 15.8528C32.5556 16.0421 32.506 16.189 32.4789 16.3706C32.4452 16.6009 32.4329 16.8342 32.397 17.0649C32.3731 17.2179 32.2431 17.2931 32.107 17.2972C32.1583 17.6866 32.1951 18.0785 32.2302 18.4674C32.2799 19.023 32.3138 19.5802 32.3428 20.1374C32.4931 20.3559 32.8006 20.5288 33.0226 20.5887C33.33 20.6711 33.6523 20.5815 33.9428 20.4767C34.1253 20.4106 34.2752 20.6404 34.1861 20.7939C33.9065 21.2759 33.308 21.2737 32.8548 21.0604C32.6631 20.9703 32.4948 20.8399 32.3699 20.6701C32.3777 20.8317 32.3859 20.9933 32.3939 21.1555L32.4016 21.3025C32.4939 23.0182 32.6926 24.7929 32.3704 26.4917C31.8124 29.4342 29.3784 31.6748 26.4049 31.8486C24.8446 31.9401 23.5451 31.4789 22.8989 31.2218C22.2528 30.9645 22.5041 30.4401 22.9527 30.59C23.7252 30.8483 25.1448 31.233 26.415 31.0669C29.4092 30.6754 31.948 29.1783 31.6872 22.7306C31.6502 21.8162 31.5362 20.9014 31.5117 19.987C31.4882 19.0931 31.4969 18.1988 31.4575 17.3054L31.4444 17.0006C31.4289 16.6444 31.4125 16.2866 31.3858 15.9301C31.3536 15.7919 31.327 15.6517 31.2878 15.5161C31.1808 15.1473 31.0411 14.7886 30.8678 14.4463C30.8295 14.4755 30.7864 14.4964 30.7399 14.5046C30.3865 14.5681 30.0551 14.5501 29.7241 14.4028C29.5697 14.3348 29.4336 14.2442 29.3068 14.1321C29.2465 14.0794 29.2061 14.0283 29.1744 13.9751C29.0143 13.9776 28.8543 13.9295 28.7541 13.8144C28.6396 13.6832 28.6207 13.5477 28.6655 13.4222L28.6701 13.4097L28.6589 13.4056C28.5239 13.7551 28.2549 14.0626 27.9598 14.2703C27.4933 14.5998 26.9096 14.695 26.3502 14.7037C25.7323 14.7129 25.0806 14.6177 24.4711 14.5205C24.3101 14.4949 24.1498 14.4657 23.9929 14.4263C23.9866 14.4325 23.9806 14.4396 23.9738 14.4458C23.4507 14.9467 22.7147 15.0756 22.0509 14.7896C21.6672 14.6243 21.3455 14.3583 21.0613 14.0533C21.0571 14.213 21.0489 14.3726 21.0351 14.5307L21.0293 14.5935C21.001 14.888 20.9465 15.2003 20.7243 15.4128C20.3645 15.7571 19.8428 15.619 19.4281 15.3949C19.4286 15.4056 19.4286 15.4169 19.4286 15.4281C19.5407 15.8088 19.6533 16.19 19.7656 16.5712L19.7898 16.6524C19.8716 16.923 19.9614 17.1941 19.9861 17.4773C20.0331 18.0187 19.6731 18.5533 19.0715 18.3717C18.7561 18.2768 18.5033 18.0114 18.2608 17.7988L18.108 17.6666C18.5034 18.9596 18.7776 20.2986 18.8031 21.6477C18.8048 21.7211 18.7418 21.7763 18.6721 21.7789C18.5096 21.7855 18.3346 21.7533 18.171 21.6881C18.1618 21.6877 18.1526 21.6872 18.1429 21.6857C17.8635 21.6453 17.6042 21.5446 17.3757 21.3957C17.4282 21.563 17.452 21.7424 17.4382 21.9302C17.4345 21.9757 17.3634 21.9917 17.3532 21.9416C17.2213 21.2923 16.4617 20.8015 15.807 20.9258C15.1043 21.0594 14.5867 21.6642 14.4599 22.3524C14.3238 23.0918 14.5842 23.9466 15.0665 24.5172C15.2884 24.7801 15.5805 24.9997 15.9272 25.0549C16.0858 25.08 16.2505 25.0713 16.4044 25.0263C16.4699 25.0069 16.5313 24.9798 16.5937 24.9542C16.6848 24.9174 16.7911 24.9115 16.877 24.8728C17.0719 24.7852 17.2677 24.9648 17.169 25.165C17.083 25.3393 17.0058 25.457 16.8632 25.547C16.9787 25.6884 17.0837 25.8847 17.1225 25.9375C17.321 26.2057 17.5224 26.459 17.7485 26.704C17.9787 26.9526 18.2298 27.1799 18.4951 27.39L18.6067 27.4784C18.8626 27.6813 19.0851 27.8691 19.2654 28.1601C19.4078 28.3899 19.2236 28.7014 18.957 28.6978C18.1235 28.6862 17.5173 27.9534 17.0857 27.3133C17.0242 27.2218 16.9666 27.1252 16.9128 27.0257C16.8935 27.0569 16.8719 27.0862 16.848 27.1129L16.8954 27.2407C17.0365 27.6174 16.4285 27.8633 16.252 27.5118C16.1236 27.2571 15.9748 27.0146 15.8091 26.7853C15.7114 26.7715 15.6157 26.7122 15.5626 26.6355C15.4281 26.4406 15.2772 26.2435 15.1498 26.0358C15.0792 25.9687 15.0066 25.9043 14.9325 25.8414C14.911 25.8603 14.889 25.8792 14.868 25.8993C14.7749 26.1116 14.6598 26.3055 14.5172 26.488L14.4866 26.527C14.2132 26.8717 13.8571 27.2245 13.4165 27.3087C13.282 27.3344 13.1526 27.1671 13.2718 27.0601C13.5802 26.7829 13.9448 26.5941 14.2292 26.2844C14.3693 26.1319 14.4979 25.9639 14.6086 25.7879L14.6338 25.7472C14.6522 25.717 14.6711 25.6867 14.6905 25.6562C14.5622 25.5686 14.4338 25.4807 14.3054 25.3926C13.952 25.6947 13.4918 25.8329 13.1009 26.083L13.0621 26.1084C12.7087 26.3447 12.3363 25.8218 12.6197 25.5349C12.932 25.2197 13.1927 24.8438 13.4694 24.4932C13.3393 24.2535 13.2778 23.9701 13.2547 23.6834C13.2456 23.6023 13.2385 23.5212 13.2313 23.4401C13.0329 23.4433 12.8335 23.3752 12.6647 23.2581L12.6007 23.2126C12.3956 23.2779 12.1803 23.3096 11.9742 23.3041C11.4894 23.2898 11.2909 22.7357 11.5942 22.3851C11.9036 22.0271 12.4452 21.9486 12.8744 22.1227C12.8882 22.1154 12.9025 22.1079 12.9163 22.1002C12.8958 22.006 12.9004 21.9205 12.9237 21.8455L12.9169 21.7997C12.8226 21.655 12.7605 21.4896 12.737 21.3148C12.7184 21.1766 12.7221 21.0393 12.7542 20.9026C12.7648 20.8572 12.7869 20.81 12.8039 20.7626C12.769 20.6745 12.7485 20.5834 12.7422 20.4918C12.7324 20.4802 12.7227 20.4683 12.7134 20.4554C12.5005 20.1564 12.5436 19.796 12.7462 19.554C12.7471 19.5386 12.7486 19.5232 12.7506 19.5079C12.7388 19.4812 12.7279 19.4542 12.718 19.4269C12.52 19.2271 12.3746 18.9867 12.4017 18.6888C12.4176 18.5135 12.4896 18.3557 12.5986 18.2378C12.5793 18.1805 12.5775 18.1143 12.6009 18.059C12.4269 17.5961 12.4489 17.0387 12.5741 16.5211C12.5465 16.4423 12.5322 16.3568 12.5353 16.2662C12.5496 15.882 12.882 15.529 13.2758 15.5336C13.3233 15.534 13.3677 15.5402 13.4103 15.5492L13.4109 15.54C13.426 15.4247 13.4577 15.3181 13.504 15.2225C13.4812 15.2143 13.4601 15.2025 13.4417 15.1868C13.1893 15.3214 12.9223 15.4244 12.6423 15.4945C12.4365 15.5461 12.2256 15.312 12.3535 15.1187C12.4129 15.029 12.4785 14.9485 12.549 14.8749C12.4487 14.8755 12.3468 14.8823 12.2437 14.8955C12.0586 14.9196 11.852 14.7932 11.7318 14.6223C11.5824 14.7676 11.4326 14.9124 11.2827 15.0572C10.9032 15.4251 10.3299 15.1544 10.27 14.6694C10.157 14.6392 10.0516 14.588 9.95907 14.5148C9.36067 14.7748 8.71674 14.9175 8.0585 14.9447C7.58592 14.9641 7.30975 14.4135 7.53068 14.0247C7.67901 13.7637 7.86314 13.5294 8.07538 13.3258C7.74602 13.4266 7.40591 13.4992 7.05861 13.5458C6.87092 13.5708 6.60547 13.4153 6.5303 13.2429C6.24284 12.5798 6.26739 11.8885 6.5983 11.2433C6.61111 11.2178 6.62542 11.1932 6.63924 11.1686C6.67349 11.0832 6.71082 10.9988 6.75123 10.9159C6.34411 10.4912 6.30884 9.85983 6.52824 9.33128C6.44027 9.18854 6.40652 9.01661 6.46636 8.86107C6.63667 8.41338 6.88217 7.99996 7.19212 7.64487C7.16244 7.58757 7.13637 7.52668 7.11436 7.4612C6.93996 6.93163 7.14198 6.29256 7.54961 5.92367C7.80586 5.69139 8.10046 5.55221 8.415 5.46317C8.54745 5.22885 8.71778 5.01753 8.91622 4.83948C8.9239 4.82258 8.93157 4.80571 8.94026 4.78881C9.24917 4.20656 9.81178 3.89444 10.4148 3.8223C10.4383 3.59461 10.5917 3.37717 10.8147 3.30655C10.8761 3.10956 10.9677 2.92129 11.0935 2.75038C11.2914 2.48125 11.6203 2.35437 11.9302 2.5309C12.1 2.62759 12.2627 2.73861 12.4151 2.86142C12.4835 2.8293 12.5612 2.80853 12.6487 2.80189L12.6708 2.80054L13.1751 2.77495C13.3863 2.68131 13.597 2.58307 13.8083 2.4874C13.9351 2.3825 14.0768 2.29501 14.2312 2.23003C14.4062 2.15687 14.5852 2.11543 14.7647 2.10161C14.9104 2.05404 15.0573 2.01208 15.2066 1.97933C15.5575 1.90259 15.9247 1.85959 16.2888 1.86317C16.2963 1.76888 16.3 1.67347 16.2993 1.57693L16.2985 1.52856C16.2903 1.219 16.5374 0.971877 16.8283 0.927866ZM16.475 25.6945C16.4249 25.7053 16.3743 25.7138 16.3236 25.7201C16.339 25.7579 16.3543 25.7959 16.3691 25.8337C16.4101 25.8567 16.4515 25.8787 16.4929 25.8993C16.4807 25.8295 16.4735 25.7596 16.475 25.6945ZM13.8472 24.9132L13.8132 24.9759C13.8077 24.9863 13.8023 24.9963 13.7969 25.0064C13.8691 25.0006 13.9417 25.0023 14.0133 25.0103L14.0131 25.0028C14.0039 24.9997 13.9947 24.9968 13.9859 24.9924C13.9365 24.9687 13.8905 24.942 13.8472 24.9132ZM15.2675 22.0556C15.72 22.082 16.1034 22.1515 16.5149 22.3495L16.5502 22.3667C16.9138 22.5473 17.5154 22.8809 17.4648 23.3593C17.4503 23.4953 17.3517 23.6386 17.1961 23.628C16.7702 23.5987 16.5267 23.169 16.2382 22.9008C15.9472 22.6308 15.5897 22.3529 15.2373 22.1672C15.1875 22.1411 15.2071 22.0583 15.2613 22.0556H15.2675ZM13.2154 15.7525C13.107 15.7561 13.1433 15.8615 13.1991 15.7735C13.2037 15.7663 13.2093 15.7592 13.2154 15.7525ZM19.0684 8.71618C18.0414 8.74318 17.008 9.34975 16.2386 9.96286C15.5694 10.4963 14.9915 11.1307 14.4798 11.8145C14.3482 12.1551 14.2351 12.5028 14.1396 12.853C14.0767 13.0843 14.0373 13.3181 13.9847 13.5514L13.9683 13.6229C13.9269 13.7003 13.8962 13.7835 13.8738 13.8696C13.967 13.9631 14.088 14.0301 14.2211 14.0618C14.264 14.0721 14.2997 14.0942 14.3279 14.1236C14.4351 13.9446 14.5288 13.7557 14.5833 13.5555L14.5853 13.5462C14.7914 13.2085 15.0152 12.8814 15.2551 12.5655C15.9169 11.6931 16.6458 10.898 17.5219 10.2364C18.1862 9.73499 18.9289 9.34203 19.7186 9.08672C19.5252 8.9307 19.3059 8.8073 19.0684 8.71618Z" fill="black"/>
<path fill-rule="evenodd" clip-rule="evenodd" d="M27.075 27.7277C26.7313 27.5876 26.4243 27.3535 26.2001 27.0545C26.1222 26.9504 26.1018 26.8407 26.1183 26.7403C26.1367 26.6275 26.2035 26.5251 26.2945 26.4565C26.3858 26.3878 26.5001 26.3537 26.6105 26.3711C26.7063 26.3861 26.8019 26.4386 26.8775 26.5476L26.8932 26.5694C27.0266 26.75 27.2004 26.8979 27.3985 26.9935C27.5892 27.0855 27.8025 27.1283 28.0235 27.1034C28.444 27.056 28.7341 26.8284 29.0422 26.5192C29.0802 26.4803 29.1185 26.4401 29.157 26.3992C29.1812 26.3621 29.2148 26.3382 29.2521 26.3258C29.2938 26.3118 29.3407 26.3127 29.3836 26.3278C29.4252 26.342 29.4623 26.3696 29.487 26.4062C29.5107 26.4408 29.524 26.4837 29.5196 26.533C29.4915 26.8531 29.324 27.139 29.0863 27.3634C28.8224 27.6128 28.4724 27.7851 28.1429 27.8456C27.7797 27.9122 27.4098 27.8645 27.075 27.7277ZM28.314 22.7872C28.7004 23.022 29.2887 23.5696 28.8733 24.1519C28.3842 24.6653 27.68 24.0768 27.3331 23.8105C27.0114 23.6043 26.6499 24.1349 26.9484 24.3758C29.4557 26.2329 30.4732 22.8487 28.5094 22.5112C28.2932 22.4739 28.2128 22.7146 28.314 22.7872ZM23.8209 20.627C23.8635 20.0972 24.6704 19.9768 24.7505 20.5012C24.8224 20.9708 24.7377 21.4022 24.5263 21.8252C24.3242 22.2292 23.8163 22.0409 23.7778 21.6729C23.7265 21.1797 23.7942 20.9565 23.8209 20.627ZM29.9617 20.3924C30.074 20.2451 30.2365 20.1445 30.4311 20.2013C31.039 20.379 30.8598 21.2424 30.6463 21.6625C30.5304 21.8908 30.1554 21.9486 29.9859 21.7477C29.7097 21.4201 29.5775 20.7657 29.9285 20.443C29.938 20.4263 29.9486 20.4094 29.9617 20.3924ZM24.5178 18.3084L24.6137 18.2916C24.9108 18.2402 25.2802 18.1908 25.4903 18.4297C25.6017 18.5564 25.6402 18.7919 25.4903 18.9131C25.2267 19.1265 24.9354 19.0438 24.6198 19.0619C24.3595 19.0768 24.1094 19.1199 23.8586 19.1916C23.3089 19.3488 22.8608 19.6359 22.3911 19.9511C22.3294 19.9924 22.2664 19.9135 22.296 19.8559C22.5671 19.3246 23.0924 18.8882 23.6187 18.6222C23.8996 18.4802 24.207 18.3624 24.5178 18.3084ZM29.4075 18.0704L29.4809 18.0855C30.2808 18.2527 31.3198 18.5868 31.6987 19.3727C31.713 19.4838 31.6977 19.5076 31.6854 19.5232L31.6812 19.5284C31.6711 19.5417 31.6628 19.56 31.6147 19.5751C31.6014 19.5719 31.5878 19.5685 31.5742 19.5649C31.4007 19.5194 31.2634 19.4567 31.1302 19.3917L30.9862 19.3206C30.8189 19.2386 30.6502 19.1595 30.4713 19.1012C30.0895 18.9766 29.6971 18.8889 29.2984 18.842C29.2119 18.8319 29.1289 18.8027 29.0631 18.7527C29.0008 18.7053 28.9534 18.6396 28.9316 18.5522C28.9035 18.4392 28.9115 18.3536 28.972 18.2517C29.0178 18.1751 29.0829 18.122 29.158 18.0915C29.2342 18.0605 29.3211 18.0531 29.4075 18.0704Z" fill="black"/>
<path fill-rule="evenodd" clip-rule="evenodd" d="M34.2535 18.8918C34.2114 18.8847 34.1692 18.8781 34.1271 18.872C34.0942 18.8533 34.0554 18.8389 34.0107 18.8302C33.908 18.8042 33.8063 18.7867 33.7047 18.7772C32.2454 18.4487 28.8694 18.9151 28.73 20.1609C28.2654 20.3161 27.8633 20.1771 27.3247 20.1909C26.9146 18.4766 19.8267 18.7186 19.4859 19.7522C19.4846 19.7518 19.4832 19.7515 19.482 19.7511C19.1544 19.6497 18.6715 19.6741 18.2967 19.6581C17.4961 19.6413 16.6948 19.7127 15.9116 19.8816C14.445 20.1147 12.4434 20.3877 13.4634 22.2198C13.4636 22.22 13.4638 22.2205 13.4641 22.2207H13.4642C13.64 22.4008 13.9383 22.2558 13.9494 22.0118C13.6065 21.1437 14.381 21.0396 14.977 20.7901C16.4598 20.2572 17.9697 20.1833 19.5033 20.3481C19.6185 20.484 19.7935 20.6025 19.9787 20.6645C21.004 20.8348 20.4636 21.5957 21.112 21.7063C20.9929 24.3589 24.2119 25.8068 26.0772 24.063C26.8219 23.3348 26.9995 22.2558 27.1722 21.2831C27.2634 21.2625 27.3215 21.2127 27.3554 21.1466C27.575 20.9273 27.7127 20.7247 28.147 20.6645C28.5811 20.6044 28.9154 20.7252 28.9607 20.7622C28.9721 20.7851 28.9842 20.8081 28.9985 20.8312C29.0183 20.8655 29.0454 20.8929 29.0759 20.9144C28.6472 23.5558 30.697 25.2263 32.7663 23.8563C33.6654 23.0102 33.8555 21.7148 33.893 20.5585C34.0148 20.4849 34.092 20.3423 34.0499 20.1631C33.9918 19.9159 34.1281 19.702 34.3452 19.5945C34.6275 19.455 34.5774 18.9454 34.2535 18.8918ZM25.3618 20.1449C25.105 20.0883 24.9953 20.4845 25.2529 20.5412C25.4354 20.5813 25.5901 20.6734 25.6944 20.8293L25.7056 20.8463C25.8458 21.0694 26.2002 20.8634 26.059 20.6388C25.9002 20.386 25.6535 20.209 25.3618 20.1449ZM32.8847 19.8992C32.7942 19.8354 32.6571 19.8828 32.6046 19.9729C32.5468 20.0722 32.5845 20.1828 32.6695 20.2477L32.678 20.2541C32.7559 20.3089 32.8317 20.4072 32.8411 20.508L32.8419 20.5205C32.852 20.7842 33.2616 20.7855 33.2515 20.5205C33.2415 20.2614 33.0914 20.0448 32.8847 19.8992Z" fill="black"/>
</svg>
