<svg width="37" height="38" viewBox="0 0 37 38" fill="none" xmlns="http://www.w3.org/2000/svg">
<path d="M32.375 30.1725C32.375 32.3431 29.9422 33.6258 28.1508 32.3986L11.9664 21.3079C11.6062 21.061 11.3113 20.7303 11.1071 20.3444C10.9029 19.9584 10.7954 19.5286 10.7939 19.0919C10.7923 18.6552 10.8969 18.2247 11.0984 17.8373C11.3 17.4499 11.5925 17.1173 11.951 16.8679L28.137 5.61063C29.9238 4.3665 32.375 5.64917 32.375 7.826L32.375 30.1725ZM4.625 31.7187C4.625 32.0254 4.74681 32.3195 4.96365 32.5363C5.18049 32.7532 5.47459 32.875 5.78125 32.875C6.0879 32.875 6.382 32.7532 6.59884 32.5363C6.81568 32.3195 6.9375 32.0254 6.9375 31.7187L6.9375 6.28125C6.9375 5.97459 6.81568 5.6805 6.59884 5.46366C6.382 5.24682 6.08791 5.125 5.78125 5.125C5.47459 5.125 5.18049 5.24682 4.96366 5.46365C4.74682 5.6805 4.625 5.97459 4.625 6.28125L4.625 31.7187Z" fill="black"/>
</svg>
