<svg width="37" height="38" viewBox="0 0 37 38" fill="none" xmlns="http://www.w3.org/2000/svg">
<path d="M4.625 7.82754C4.625 5.65688 7.05775 4.37421 8.84917 5.60138L25.0336 16.6921C25.3938 16.939 25.6887 17.2697 25.8929 17.6556C26.0971 18.0416 26.2046 18.4714 26.2061 18.9081C26.2076 19.3448 26.1031 19.7753 25.9016 20.1627C25.7 20.5501 25.4075 20.8827 25.049 21.1321L8.86304 32.3894C7.07625 33.6335 4.625 32.3508 4.625 30.174V7.82754ZM32.375 6.28125C32.375 5.97459 32.2532 5.6805 32.0363 5.46366C31.8195 5.24682 31.5254 5.125 31.2188 5.125C30.9121 5.125 30.618 5.24682 30.4012 5.46366C30.1843 5.6805 30.0625 5.97459 30.0625 6.28125V31.7188C30.0625 32.0254 30.1843 32.3195 30.4012 32.5363C30.618 32.7532 30.9121 32.875 31.2188 32.875C31.5254 32.875 31.8195 32.7532 32.0363 32.5363C32.2532 32.3195 32.375 32.0254 32.375 31.7188V6.28125Z" fill="black"/>
</svg>
